<?xml version="1.0" encoding="UTF-8" standalone="no"?>
<!DOCTYPE svg PUBLIC "-//W3C//DTD SVG 1.1//EN"
 "http://www.w3.org/Graphics/SVG/1.1/DTD/svg11.dtd">
<!-- Generated by graphviz version 2.50.0 (0)
 -->
<!-- Pages: 1 -->
<svg width="458pt" height="440pt"
 viewBox="0.00 0.00 457.50 440.00" xmlns="http://www.w3.org/2000/svg" xmlns:xlink="http://www.w3.org/1999/xlink">
<g id="graph0" class="graph" transform="scale(1 1) rotate(0) translate(4 436)">
<polygon fill="white" stroke="transparent" points="-4,4 -4,-436 453.5,-436 453.5,4 -4,4"/>
<!-- wash -->
<g id="node1" class="node">
<title>wash</title>
<polygon fill="none" stroke="black" points="95,-432 0,-432 0,-396 95,-396 95,-432"/>
<text text-anchor="middle" x="47.5" y="-410.9" font-family="Roboto" font-size="12.00">BioTek washer</text>
</g>
<!-- dll -->
<g id="node4" class="node">
<title>dll</title>
<polygon fill="none" stroke="black" points="176.5,-347 74.5,-347 74.5,-311 176.5,-311 176.5,-347"/>
<text text-anchor="middle" x="125.5" y="-325.9" font-family="Roboto" font-size="12.00">BTILHCCaller.dll</text>
</g>
<!-- wash&#45;&#45;dll -->
<g id="edge1" class="edge">
<title>wash&#45;&#45;dll</title>
<path fill="none" stroke="black" d="M63.66,-395.8C77.05,-381.56 95.98,-361.41 109.36,-347.18"/>
<text text-anchor="middle" x="107" y="-368.4" font-family="Roboto" font-size="12.00"> &#160;&#160;USB</text>
</g>
<!-- disp -->
<g id="node2" class="node">
<title>disp</title>
<polygon fill="none" stroke="black" points="220,-432 113,-432 113,-396 220,-396 220,-432"/>
<text text-anchor="middle" x="166.5" y="-410.9" font-family="Roboto" font-size="12.00">BioTek dispenser</text>
</g>
<!-- disp&#45;&#45;dll -->
<g id="edge2" class="edge">
<title>disp&#45;&#45;dll</title>
<path fill="none" stroke="black" d="M158,-395.8C150.97,-381.56 141.02,-361.41 133.98,-347.18"/>
<text text-anchor="middle" x="163" y="-368.4" font-family="Roboto" font-size="12.00"> &#160;&#160;USB</text>
</g>
<!-- incu -->
<g id="node3" class="node">
<title>incu</title>
<polygon fill="none" stroke="black" points="394.5,-432 280.5,-432 280.5,-396 394.5,-396 394.5,-432"/>
<text text-anchor="middle" x="337.5" y="-410.9" font-family="Roboto" font-size="12.00">LiCONiC incubator</text>
</g>
<!-- incu_java -->
<g id="node7" class="node">
<title>incu_java</title>
<polygon fill="none" stroke="black" points="390,-347 285,-347 285,-311 390,-311 390,-347"/>
<text text-anchor="middle" x="337.5" y="-325.9" font-family="Roboto" font-size="12.00">STXdriver (Java)</text>
</g>
<!-- incu&#45;&#45;incu_java -->
<g id="edge5" class="edge">
<title>incu&#45;&#45;incu_java</title>
<path fill="none" stroke="black" d="M337.5,-395.8C337.5,-381.56 337.5,-361.41 337.5,-347.18"/>
<text text-anchor="middle" x="393.5" y="-368.4" font-family="Roboto" font-size="12.00"> &#160;USB serial converter</text>
</g>
<!-- biotek_repl -->
<g id="node5" class="node">
<title>biotek_repl</title>
<polygon fill="none" stroke="black" points="217,-262 34,-262 34,-198 217,-198 217,-262"/>
<text text-anchor="start" x="48" y="-239.4" font-family="Roboto" font-size="12.00"> &#160;&#160;&#160;&#160;&#160;&#160;&#160;LHC_Caller (C# repl) &#160;&#160;&#160;&#160;&#160;&#160;&#160;</text>
<text text-anchor="start" x="65.5" y="-215.4" font-family="Roboto" font-size="12.00"> &#160;&#160;&#160;&#160;&#160;&#160;&#160;</text>
<text text-anchor="start" x="90.5" y="-215.4" font-family="Consolas" font-size="12.00">biotek_repl/</text>
<text text-anchor="start" x="172.5" y="-215.4" font-family="Roboto" font-size="12.00"> &#160;&#160;&#160;</text>
</g>
<!-- dll&#45;&#45;biotek_repl -->
<g id="edge3" class="edge">
<title>dll&#45;&#45;biotek_repl</title>
<path fill="none" stroke="black" d="M125.5,-310.66C125.5,-297.25 125.5,-278.34 125.5,-262.31"/>
<text text-anchor="middle" x="146" y="-283.4" font-family="Roboto" font-size="12.00"> &#160;dll call</text>
</g>
<!-- labrobots_server -->
<g id="node6" class="node">
<title>labrobots_server</title>
<polygon fill="none" stroke="black" points="336,-149 127,-149 127,-85 336,-85 336,-149"/>
<text text-anchor="start" x="141" y="-126.4" font-family="Roboto" font-size="12.00"> &#160;&#160;&#160;&#160;&#160;&#160;&#160;http server (python flask) &#160;&#160;&#160;&#160;&#160;&#160;&#160;</text>
<text text-anchor="start" x="155" y="-102.4" font-family="Roboto" font-size="12.00"> &#160;&#160;&#160;&#160;&#160;&#160;&#160;</text>
<text text-anchor="start" x="180" y="-102.4" font-family="Consolas" font-size="12.00">labrobots_server/</text>
<text text-anchor="start" x="295" y="-102.4" font-family="Roboto" font-size="12.00"> &#160;&#160;&#160;</text>
</g>
<!-- biotek_repl&#45;&#45;labrobots_server -->
<g id="edge4" class="edge">
<title>biotek_repl&#45;&#45;labrobots_server</title>
<path fill="none" stroke="black" d="M155.31,-197.78C169.76,-182.65 187.08,-164.52 201.55,-149.37"/>
<text text-anchor="middle" x="215" y="-170.4" font-family="Roboto" font-size="12.00"> &#160;subprocess</text>
</g>
<!-- controller -->
<g id="node9" class="node">
<title>controller</title>
<polygon fill="none" stroke="black" points="338,-36 125,-36 125,0 338,0 338,-36"/>
<text text-anchor="middle" x="231.5" y="-14.9" font-family="Roboto" font-size="12.00">external use (robot controller system)</text>
</g>
<!-- labrobots_server&#45;&#45;controller -->
<g id="edge8" class="edge">
<title>labrobots_server&#45;&#45;controller</title>
<path fill="none" stroke="black" d="M231.5,-84.77C231.5,-68.6 231.5,-49.48 231.5,-36.04"/>
<text text-anchor="middle" x="247" y="-57.4" font-family="Roboto" font-size="12.00"> &#160;&#160;http</text>
</g>
<!-- incu_repl -->
<g id="node8" class="node">
<title>incu_repl</title>
<polygon fill="none" stroke="black" points="440,-262 235,-262 235,-198 440,-198 440,-262"/>
<text text-anchor="start" x="249" y="-239.4" font-family="Roboto" font-size="12.00"> &#160;&#160;&#160;&#160;&#160;&#160;&#160;incubator &quot;repl&quot; (python) &#160;&#160;&#160;&#160;&#160;&#160;&#160;</text>
<text text-anchor="start" x="267.5" y="-215.4" font-family="Roboto" font-size="12.00"> &#160;&#160;&#160;&#160;&#160;&#160;&#160;</text>
<text text-anchor="start" x="292.5" y="-215.4" font-family="Consolas" font-size="12.00">incubator_repl/</text>
<text text-anchor="start" x="394.5" y="-215.4" font-family="Roboto" font-size="12.00"> &#160;&#160;&#160;</text>
</g>
<!-- incu_java&#45;&#45;incu_repl -->
<g id="edge6" class="edge">
<title>incu_java&#45;&#45;incu_repl</title>
<path fill="none" stroke="black" d="M337.5,-310.66C337.5,-297.25 337.5,-278.34 337.5,-262.31"/>
<text text-anchor="middle" x="371" y="-283.4" font-family="Roboto" font-size="12.00"> &#160;TCP socket</text>
</g>
<!-- incu_repl&#45;&#45;labrobots_server -->
<g id="edge7" class="edge">
<title>incu_repl&#45;&#45;labrobots_server</title>
<path fill="none" stroke="black" d="M307.69,-197.78C293.24,-182.65 275.92,-164.52 261.45,-149.37"/>
<text text-anchor="middle" x="324" y="-170.4" font-family="Roboto" font-size="12.00"> &#160;&#160;&#160;subprocess</text>
</g>
</g>
</svg>
