<?xml version="1.0" encoding="UTF-8" standalone="no"?>
<!DOCTYPE svg PUBLIC "-//W3C//DTD SVG 1.1//EN"
 "http://www.w3.org/Graphics/SVG/1.1/DTD/svg11.dtd">
<!-- Generated by graphviz version 2.50.0 (0)
 -->
<!-- Pages: 1 -->
<svg width="456pt" height="440pt"
 viewBox="0.00 0.00 455.50 440.00" xmlns="http://www.w3.org/2000/svg" xmlns:xlink="http://www.w3.org/1999/xlink">
<g id="graph0" class="graph" transform="scale(1 1) rotate(0) translate(4 436)">
<polygon fill="white" stroke="transparent" points="-4,4 -4,-436 451.5,-436 451.5,4 -4,4"/>
<!-- wash -->
<g id="node1" class="node">
<title>wash</title>
<polygon fill="none" stroke="black" points="95,-432 0,-432 0,-396 95,-396 95,-432"/>
<text text-anchor="middle" x="47.5" y="-410.9" font-family="Roboto" font-size="12.00">BioTek washer</text>
</g>
<!-- dll -->
<g id="node4" class="node">
<title>dll</title>
<polygon fill="none" stroke="black" points="178.5,-347 76.5,-347 76.5,-311 178.5,-311 178.5,-347"/>
<text text-anchor="middle" x="127.5" y="-325.9" font-family="Roboto" font-size="12.00">BTILHCCaller.dll</text>
</g>
<!-- wash&#45;&#45;dll -->
<g id="edge1" class="edge">
<title>wash&#45;&#45;dll</title>
<path fill="none" stroke="black" d="M64.08,-395.8C77.81,-381.56 97.22,-361.41 110.95,-347.18"/>
<text text-anchor="middle" x="108" y="-368.4" font-family="Roboto" font-size="12.00"> &#160;&#160;USB</text>
</g>
<!-- disp -->
<g id="node2" class="node">
<title>disp</title>
<polygon fill="none" stroke="black" points="220,-432 113,-432 113,-396 220,-396 220,-432"/>
<text text-anchor="middle" x="166.5" y="-410.9" font-family="Roboto" font-size="12.00">BioTek dispenser</text>
</g>
<!-- disp&#45;&#45;dll -->
<g id="edge2" class="edge">
<title>disp&#45;&#45;dll</title>
<path fill="none" stroke="black" d="M158.42,-395.8C151.73,-381.56 142.26,-361.41 135.57,-347.18"/>
<text text-anchor="middle" x="164" y="-368.4" font-family="Roboto" font-size="12.00"> &#160;&#160;USB</text>
</g>
<!-- incu -->
<g id="node3" class="node">
<title>incu</title>
<polygon fill="none" stroke="black" points="392.5,-432 278.5,-432 278.5,-396 392.5,-396 392.5,-432"/>
<text text-anchor="middle" x="335.5" y="-410.9" font-family="Roboto" font-size="12.00">LiCONiC incubator</text>
</g>
<!-- incu_java -->
<g id="node7" class="node">
<title>incu_java</title>
<polygon fill="none" stroke="black" points="388,-347 283,-347 283,-311 388,-311 388,-347"/>
<text text-anchor="middle" x="335.5" y="-325.9" font-family="Roboto" font-size="12.00">STXdriver (Java)</text>
</g>
<!-- incu&#45;&#45;incu_java -->
<g id="edge5" class="edge">
<title>incu&#45;&#45;incu_java</title>
<path fill="none" stroke="black" d="M335.5,-395.8C335.5,-381.56 335.5,-361.41 335.5,-347.18"/>
<text text-anchor="middle" x="391.5" y="-368.4" font-family="Roboto" font-size="12.00"> &#160;USB serial converter</text>
</g>
<!-- biotek_cli -->
<g id="node5" class="node">
<title>biotek_cli</title>
<polygon fill="none" stroke="black" points="215.5,-262 39.5,-262 39.5,-198 215.5,-198 215.5,-262"/>
<text text-anchor="start" x="53.5" y="-239.4" font-family="Roboto" font-size="12.00"> &#160;&#160;&#160;&#160;&#160;&#160;&#160;LHC_Caller (C# cli) &#160;&#160;&#160;&#160;&#160;&#160;&#160;</text>
<text text-anchor="start" x="71" y="-215.4" font-family="Roboto" font-size="12.00"> &#160;&#160;&#160;&#160;&#160;&#160;&#160;</text>
<text text-anchor="start" x="96" y="-215.4" font-family="Consolas" font-size="12.00">biotek&#45;cli/</text>
<text text-anchor="start" x="171" y="-215.4" font-family="Roboto" font-size="12.00"> &#160;&#160;&#160;</text>
</g>
<!-- dll&#45;&#45;biotek_cli -->
<g id="edge3" class="edge">
<title>dll&#45;&#45;biotek_cli</title>
<path fill="none" stroke="black" d="M127.5,-310.66C127.5,-297.25 127.5,-278.34 127.5,-262.31"/>
<text text-anchor="middle" x="148" y="-283.4" font-family="Roboto" font-size="12.00"> &#160;dll call</text>
</g>
<!-- cliwrapper_server -->
<g id="node6" class="node">
<title>cliwrapper_server</title>
<polygon fill="none" stroke="black" points="336,-149 127,-149 127,-85 336,-85 336,-149"/>
<text text-anchor="start" x="141" y="-126.4" font-family="Roboto" font-size="12.00"> &#160;&#160;&#160;&#160;&#160;&#160;&#160;http server (python flask) &#160;&#160;&#160;&#160;&#160;&#160;&#160;</text>
<text text-anchor="start" x="151.5" y="-102.4" font-family="Roboto" font-size="12.00"> &#160;&#160;&#160;&#160;&#160;&#160;&#160;</text>
<text text-anchor="start" x="176.5" y="-102.4" font-family="Consolas" font-size="12.00">cliwrapper&#45;server/</text>
<text text-anchor="start" x="298.5" y="-102.4" font-family="Roboto" font-size="12.00"> &#160;&#160;&#160;</text>
</g>
<!-- biotek_cli&#45;&#45;cliwrapper_server -->
<g id="edge4" class="edge">
<title>biotek_cli&#45;&#45;cliwrapper_server</title>
<path fill="none" stroke="black" d="M156.75,-197.78C170.93,-182.65 187.92,-164.52 202.11,-149.37"/>
<text text-anchor="middle" x="216" y="-170.4" font-family="Roboto" font-size="12.00"> &#160;subprocess</text>
</g>
<!-- controller -->
<g id="node9" class="node">
<title>controller</title>
<polygon fill="none" stroke="black" points="338,-36 125,-36 125,0 338,0 338,-36"/>
<text text-anchor="middle" x="231.5" y="-14.9" font-family="Roboto" font-size="12.00">external use (robot controller system)</text>
</g>
<!-- cliwrapper_server&#45;&#45;controller -->
<g id="edge8" class="edge">
<title>cliwrapper_server&#45;&#45;controller</title>
<path fill="none" stroke="black" d="M231.5,-84.77C231.5,-68.6 231.5,-49.48 231.5,-36.04"/>
<text text-anchor="middle" x="247" y="-57.4" font-family="Roboto" font-size="12.00"> &#160;&#160;http</text>
</g>
<!-- incu_cli -->
<g id="node8" class="node">
<title>incu_cli</title>
<polygon fill="none" stroke="black" points="438,-262 233,-262 233,-198 438,-198 438,-262"/>
<text text-anchor="start" x="247" y="-239.4" font-family="Roboto" font-size="12.00"> &#160;&#160;&#160;&#160;&#160;&#160;&#160;incubator &quot;repl&quot; (python) &#160;&#160;&#160;&#160;&#160;&#160;&#160;</text>
<text text-anchor="start" x="269" y="-215.4" font-family="Roboto" font-size="12.00"> &#160;&#160;&#160;&#160;&#160;&#160;&#160;</text>
<text text-anchor="start" x="294" y="-215.4" font-family="Consolas" font-size="12.00">incubator&#45;cli/</text>
<text text-anchor="start" x="389" y="-215.4" font-family="Roboto" font-size="12.00"> &#160;&#160;&#160;</text>
</g>
<!-- incu_java&#45;&#45;incu_cli -->
<g id="edge6" class="edge">
<title>incu_java&#45;&#45;incu_cli</title>
<path fill="none" stroke="black" d="M335.5,-310.66C335.5,-297.25 335.5,-278.34 335.5,-262.31"/>
<text text-anchor="middle" x="369" y="-283.4" font-family="Roboto" font-size="12.00"> &#160;TCP socket</text>
</g>
<!-- incu_cli&#45;&#45;cliwrapper_server -->
<g id="edge7" class="edge">
<title>incu_cli&#45;&#45;cliwrapper_server</title>
<path fill="none" stroke="black" d="M306.25,-197.78C292.07,-182.65 275.08,-164.52 260.89,-149.37"/>
<text text-anchor="middle" x="323" y="-170.4" font-family="Roboto" font-size="12.00"> &#160;&#160;&#160;subprocess</text>
</g>
</g>
</svg>
