<?xml version="1.0" encoding="UTF-8" standalone="no"?>
<!DOCTYPE svg PUBLIC "-//W3C//DTD SVG 1.1//EN"
 "http://www.w3.org/Graphics/SVG/1.1/DTD/svg11.dtd">
<!-- Generated by graphviz version 2.50.0 (0)
 -->
<!-- Pages: 1 -->
<svg width="465pt" height="429pt"
 viewBox="0.00 0.00 465.00 428.60" xmlns="http://www.w3.org/2000/svg" xmlns:xlink="http://www.w3.org/1999/xlink">
<g id="graph0" class="graph" transform="scale(1 1) rotate(0) translate(4 424.6)">
<polygon fill="white" stroke="transparent" points="-4,4 -4,-424.6 461,-424.6 461,4 -4,4"/>
<!-- imx -->
<g id="node1" class="node">
<title>imx</title>
<polygon fill="none" stroke="black" points="200,-419.9 0,-419.9 0,-352.9 200,-352.9 200,-419.9"/>
<text text-anchor="start" x="98" y="-396.3" font-family="Roboto" font-size="12.00"> </text>
<text text-anchor="start" x="14" y="-383.3" font-family="Roboto" font-size="12.00"> ImageXpress (IMX) microscope </text>
<text text-anchor="start" x="98" y="-370.3" font-family="Roboto" font-size="12.00"> </text>
</g>
<!-- imx_server -->
<g id="node3" class="node">
<title>imx_server</title>
<polygon fill="none" stroke="black" points="199,-303.4 5,-303.4 5,-234.6 199,-234.6 199,-303.4"/>
<text text-anchor="start" x="48.5" y="-279.6" font-family="Roboto" font-size="12.00"> python flask server </text>
<text text-anchor="start" x="19" y="-252.2" font-family="Roboto" font-size="12.00"> imx windows 10.10.0.99:5050 </text>
</g>
<!-- imx&#45;&#45;imx_server -->
<g id="edge1" class="edge">
<title>imx&#45;&#45;imx_server</title>
<path fill="none" stroke="black" d="M100.57,-352.64C100.84,-337.18 101.15,-318.76 101.42,-303.24"/>
<text text-anchor="middle" x="131" y="-324.6" font-family="Roboto" font-size="12.00"> &#160;COM port</text>
</g>
<!-- pf -->
<g id="node2" class="node">
<title>pf</title>
<polygon fill="none" stroke="black" points="436,-420.8 218,-420.8 218,-352 436,-352 436,-420.8"/>
<text text-anchor="start" x="255" y="-397" font-family="Roboto" font-size="12.00"> PreciseFlex (PF) robotarm </text>
<text text-anchor="start" x="232" y="-369.6" font-family="Roboto" font-size="12.00"> 10.10.0.98:{20,21,23,10000,10100} </text>
</g>
<!-- pf_server -->
<g id="node4" class="node">
<title>pf_server</title>
<polygon fill="none" stroke="black" points="429.5,-303.4 220.5,-303.4 220.5,-234.6 429.5,-234.6 429.5,-303.4"/>
<text text-anchor="start" x="271.5" y="-279.6" font-family="Roboto" font-size="12.00"> python flask server </text>
<text text-anchor="start" x="234.5" y="-252.2" font-family="Roboto" font-size="12.00"> robotlab&#45;ubuntu 10.10.0.55:5050 </text>
</g>
<!-- pf&#45;&#45;pf_server -->
<g id="edge2" class="edge">
<title>pf&#45;&#45;pf_server</title>
<path fill="none" stroke="black" d="M326.42,-352.02C326.16,-336.71 325.84,-318.6 325.58,-303.3"/>
<text text-anchor="middle" x="391.5" y="-324.6" font-family="Roboto" font-size="12.00"> &#160;TCP: socket, telnet, FTP</text>
</g>
<!-- scheduler -->
<g id="node5" class="node">
<title>scheduler</title>
<polygon fill="none" stroke="black" points="312.5,-186 109.5,-186 109.5,-117.2 312.5,-117.2 312.5,-186"/>
<text text-anchor="start" x="182" y="-162.2" font-family="Roboto" font-size="12.00"> scheduler </text>
<text text-anchor="start" x="123.5" y="-134.8" font-family="Roboto" font-size="12.00"> on robotlab&#45;ubuntu (10.10.0.55) </text>
</g>
<!-- imx_server&#45;&#45;scheduler -->
<g id="edge3" class="edge">
<title>imx_server&#45;&#45;scheduler</title>
<path fill="none" stroke="black" d="M133.53,-234.62C147.99,-219.31 165.09,-201.2 179.54,-185.9"/>
<text text-anchor="middle" x="174" y="-207.2" font-family="Roboto" font-size="12.00"> &#160;http</text>
</g>
<!-- pf_server&#45;&#45;scheduler -->
<g id="edge4" class="edge">
<title>pf_server&#45;&#45;scheduler</title>
<path fill="none" stroke="black" d="M292.03,-234.62C276.9,-219.31 259.01,-201.2 243.9,-185.9"/>
<text text-anchor="middle" x="286" y="-207.2" font-family="Roboto" font-size="12.00"> &#160;http</text>
</g>
<!-- scheduler_ui -->
<g id="node6" class="node">
<title>scheduler_ui</title>
<polygon fill="none" stroke="black" points="327.5,-68.6 94.5,-68.6 94.5,0.2 327.5,0.2 327.5,-68.6"/>
<text text-anchor="start" x="144.5" y="-44.8" font-family="Roboto" font-size="12.00"> scheduler user interface </text>
<text text-anchor="start" x="108.5" y="-17.4" font-family="Roboto" font-size="12.00"> on robotlab&#45;ubuntu (10.10.0.55:5080) </text>
</g>
<!-- scheduler&#45;&#45;scheduler_ui -->
<g id="edge5" class="edge">
<title>scheduler&#45;&#45;scheduler_ui</title>
<path fill="none" stroke="black" d="M211,-117.22C211,-101.91 211,-83.8 211,-68.5"/>
<text text-anchor="middle" x="293.5" y="-89.8" font-family="Roboto" font-size="12.00"> &#160;filesystem on robotlab&#45;ubuntu</text>
</g>
</g>
</svg>
