<?xml version="1.0" encoding="UTF-8" standalone="no"?>
<!DOCTYPE svg PUBLIC "-//W3C//DTD SVG 1.1//EN"
 "http://www.w3.org/Graphics/SVG/1.1/DTD/svg11.dtd">
<!-- Generated by graphviz version 2.50.0 (0)
 -->
<!-- Pages: 1 -->
<svg width="442pt" height="437pt"
 viewBox="0.00 0.00 441.50 437.20" xmlns="http://www.w3.org/2000/svg" xmlns:xlink="http://www.w3.org/1999/xlink">
<g id="graph0" class="graph" transform="scale(1 1) rotate(0) translate(4 433.2)">
<polygon fill="white" stroke="transparent" points="-4,4 -4,-433.2 437.5,-433.2 437.5,4 -4,4"/>
<!-- imx -->
<g id="node1" class="node">
<title>imx</title>
<polygon fill="none" stroke="black" points="197,-428.5 0,-428.5 0,-361.5 197,-361.5 197,-428.5"/>
<text text-anchor="start" x="96.5" y="-404.9" font-family="Roboto" font-size="12.00"> </text>
<text text-anchor="start" x="14" y="-391.9" font-family="Roboto" font-size="12.00"> ImageXpress (IMX) microscope</text>
<text text-anchor="start" x="96.5" y="-378.9" font-family="Roboto" font-size="12.00"> </text>
</g>
<!-- imx_server -->
<g id="node3" class="node">
<title>imx_server</title>
<polygon fill="none" stroke="black" points="247,-298.8 34,-298.8 34,-234.8 247,-234.8 247,-298.8"/>
<text text-anchor="start" x="48" y="-276.2" font-family="Roboto" font-size="12.00"> python flask server: </text>
<text text-anchor="start" x="158" y="-276.2" font-family="Consolas" font-size="12.00">imx_server/</text>
<text text-anchor="start" x="57.5" y="-252.2" font-family="Roboto" font-size="12.00"> imx windows 10.10.0.99:5050 </text>
</g>
<!-- imx&#45;&#45;imx_server -->
<g id="edge1" class="edge">
<title>imx&#45;&#45;imx_server</title>
<path fill="none" stroke="black" d="M109.43,-361.17C115.79,-342.04 123.78,-318.04 130.06,-299.16"/>
<text text-anchor="start" x="123.5" y="-333.2" font-family="Roboto" font-size="12.00">COM port</text>
<text text-anchor="start" x="125" y="-320.2" font-family="Roboto" font-size="12.00">(via USB)</text>
</g>
<!-- pf -->
<g id="node2" class="node">
<title>pf</title>
<polygon fill="none" stroke="black" points="433.5,-429.4 215.5,-429.4 215.5,-360.6 433.5,-360.6 433.5,-429.4"/>
<text text-anchor="start" x="252.5" y="-405.6" font-family="Roboto" font-size="12.00"> PreciseFlex (PF) robotarm </text>
<text text-anchor="start" x="229.5" y="-378.2" font-family="Roboto" font-size="12.00"> 10.10.0.98:{20,21,23,10000,10100} </text>
</g>
<!-- scheduler -->
<g id="node4" class="node">
<title>scheduler</title>
<polygon fill="none" stroke="black" points="334,-186 131,-186 131,-117.2 334,-117.2 334,-186"/>
<text text-anchor="start" x="203.5" y="-162.2" font-family="Roboto" font-size="12.00"> scheduler </text>
<text text-anchor="start" x="145" y="-134.8" font-family="Roboto" font-size="12.00"> on robotlab&#45;ubuntu (10.10.0.55) </text>
</g>
<!-- pf&#45;&#45;scheduler -->
<g id="edge2" class="edge">
<title>pf&#45;&#45;scheduler</title>
<path fill="none" stroke="black" d="M311.8,-360.69C294.26,-314.64 262.77,-232.03 245.21,-185.96"/>
<text text-anchor="middle" x="351" y="-263.7" font-family="Roboto" font-size="12.00">TCP: socket, telnet, FTP</text>
</g>
<!-- imx_server&#45;&#45;scheduler -->
<g id="edge3" class="edge">
<title>imx_server&#45;&#45;scheduler</title>
<path fill="none" stroke="black" d="M165.88,-234.57C178.12,-219.52 192.8,-201.45 205.27,-186.11"/>
<text text-anchor="middle" x="203.5" y="-207.2" font-family="Roboto" font-size="12.00"> &#160;http</text>
</g>
<!-- scheduler_ui -->
<g id="node5" class="node">
<title>scheduler_ui</title>
<polygon fill="none" stroke="black" points="349,-68.6 116,-68.6 116,0.2 349,0.2 349,-68.6"/>
<text text-anchor="start" x="166" y="-44.8" font-family="Roboto" font-size="12.00"> scheduler user interface </text>
<text text-anchor="start" x="130" y="-17.4" font-family="Roboto" font-size="12.00"> on robotlab&#45;ubuntu (10.10.0.55:5080) </text>
</g>
<!-- scheduler&#45;&#45;scheduler_ui -->
<g id="edge4" class="edge">
<title>scheduler&#45;&#45;scheduler_ui</title>
<path fill="none" stroke="black" d="M232.5,-117.22C232.5,-101.91 232.5,-83.8 232.5,-68.5"/>
<text text-anchor="middle" x="315" y="-89.8" font-family="Roboto" font-size="12.00"> &#160;filesystem on robotlab&#45;ubuntu</text>
</g>
</g>
</svg>
