<?xml version="1.0" encoding="UTF-8" standalone="no"?>
<!DOCTYPE svg PUBLIC "-//W3C//DTD SVG 1.1//EN"
 "http://www.w3.org/Graphics/SVG/1.1/DTD/svg11.dtd">
<!-- Generated by graphviz version 2.48.0 (0)
 -->
<!-- Pages: 1 -->
<svg width="465pt" height="463pt"
 viewBox="0.00 0.00 464.50 463.00" xmlns="http://www.w3.org/2000/svg" xmlns:xlink="http://www.w3.org/1999/xlink">
<g id="graph0" class="graph" transform="scale(1 1) rotate(0) translate(4 459)">
<polygon fill="white" stroke="transparent" points="-4,4 -4,-459 460.5,-459 460.5,4 -4,4"/>
<!-- wash -->
<g id="node1" class="node">
<title>wash</title>
<polygon fill="none" stroke="black" points="95,-455 0,-455 0,-419 95,-419 95,-455"/>
<text text-anchor="middle" x="47.5" y="-433.9" font-family="Roboto" font-size="12.00">BioTek washer</text>
</g>
<!-- dll -->
<g id="node4" class="node">
<title>dll</title>
<polygon fill="none" stroke="black" points="168.5,-370 66.5,-370 66.5,-334 168.5,-334 168.5,-370"/>
<text text-anchor="middle" x="117.5" y="-348.9" font-family="Roboto" font-size="12.00">BTILHCCaller.dll</text>
</g>
<!-- wash&#45;&#45;dll -->
<g id="edge1" class="edge">
<title>wash&#45;&#45;dll</title>
<path fill="none" stroke="black" d="M62,-418.8C74.02,-404.56 91.01,-384.41 103.01,-370.18"/>
<text text-anchor="middle" x="103" y="-391.4" font-family="Roboto" font-size="12.00"> &#160;&#160;USB</text>
</g>
<!-- disp -->
<g id="node2" class="node">
<title>disp</title>
<polygon fill="none" stroke="black" points="220,-455 113,-455 113,-419 220,-419 220,-455"/>
<text text-anchor="middle" x="166.5" y="-433.9" font-family="Roboto" font-size="12.00">BioTek dispenser</text>
</g>
<!-- disp&#45;&#45;dll -->
<g id="edge2" class="edge">
<title>disp&#45;&#45;dll</title>
<path fill="none" stroke="black" d="M156.35,-418.8C147.94,-404.56 136.05,-384.41 127.64,-370.18"/>
<text text-anchor="middle" x="160" y="-391.4" font-family="Roboto" font-size="12.00"> &#160;&#160;USB</text>
</g>
<!-- incu -->
<g id="node3" class="node">
<title>incu</title>
<polygon fill="none" stroke="black" points="401.5,-455 287.5,-455 287.5,-419 401.5,-419 401.5,-455"/>
<text text-anchor="middle" x="344.5" y="-433.9" font-family="Roboto" font-size="12.00">LiCONiC incubator</text>
</g>
<!-- incu_java -->
<g id="node7" class="node">
<title>incu_java</title>
<polygon fill="none" stroke="black" points="397,-316 292,-316 292,-280 397,-280 397,-316"/>
<text text-anchor="middle" x="344.5" y="-294.9" font-family="Roboto" font-size="12.00">STXdriver (Java)</text>
</g>
<!-- incu&#45;&#45;incu_java -->
<g id="edge5" class="edge">
<title>incu&#45;&#45;incu_java</title>
<path fill="none" stroke="black" d="M344.5,-418.93C344.5,-392.67 344.5,-342.67 344.5,-316.29"/>
<text text-anchor="middle" x="400.5" y="-391.4" font-family="Roboto" font-size="12.00"> &#160;USB serial converter</text>
</g>
<!-- cli -->
<g id="node5" class="node">
<title>cli</title>
<polygon fill="none" stroke="black" points="205.5,-262 29.5,-262 29.5,-198 205.5,-198 205.5,-262"/>
<text text-anchor="start" x="43.5" y="-239.4" font-family="Roboto" font-size="12.00"> &#160;&#160;&#160;&#160;&#160;&#160;&#160;LHC_Caller (C# cli) &#160;&#160;&#160;&#160;&#160;&#160;&#160;</text>
<text text-anchor="start" x="61" y="-215.4" font-family="Roboto" font-size="12.00"> &#160;&#160;&#160;&#160;&#160;&#160;&#160;</text>
<text text-anchor="start" x="86" y="-215.4" font-family="Consolas" font-size="12.00">biotek&#45;cli/</text>
<text text-anchor="start" x="161" y="-215.4" font-family="Roboto" font-size="12.00"> &#160;&#160;&#160;</text>
</g>
<!-- dll&#45;&#45;cli -->
<g id="edge3" class="edge">
<title>dll&#45;&#45;cli</title>
<path fill="none" stroke="black" d="M117.5,-333.81C117.5,-315.14 117.5,-284.95 117.5,-262.1"/>
<text text-anchor="middle" x="138" y="-294.9" font-family="Roboto" font-size="12.00"> &#160;dll call</text>
</g>
<!-- biotek_server -->
<g id="node6" class="node">
<title>biotek_server</title>
<polygon fill="none" stroke="black" points="222,-149 13,-149 13,-85 222,-85 222,-149"/>
<text text-anchor="start" x="27" y="-126.4" font-family="Roboto" font-size="12.00"> &#160;&#160;&#160;&#160;&#160;&#160;&#160;http server (python flask) &#160;&#160;&#160;&#160;&#160;&#160;&#160;</text>
<text text-anchor="start" x="51" y="-102.4" font-family="Roboto" font-size="12.00"> &#160;&#160;&#160;&#160;&#160;&#160;&#160;</text>
<text text-anchor="start" x="76" y="-102.4" font-family="Consolas" font-size="12.00">biotek&#45;server/</text>
<text text-anchor="start" x="171" y="-102.4" font-family="Roboto" font-size="12.00"> &#160;&#160;&#160;</text>
</g>
<!-- cli&#45;&#45;biotek_server -->
<g id="edge4" class="edge">
<title>cli&#45;&#45;biotek_server</title>
<path fill="none" stroke="black" d="M117.5,-197.78C117.5,-182.65 117.5,-164.52 117.5,-149.37"/>
<text text-anchor="middle" x="151" y="-170.4" font-family="Roboto" font-size="12.00"> &#160;subprocess</text>
</g>
<!-- controller -->
<g id="node9" class="node">
<title>controller</title>
<polygon fill="none" stroke="black" points="337,-36 124,-36 124,0 337,0 337,-36"/>
<text text-anchor="middle" x="230.5" y="-14.9" font-family="Roboto" font-size="12.00">external use (robot controller system)</text>
</g>
<!-- biotek_server&#45;&#45;controller -->
<g id="edge8" class="edge">
<title>biotek_server&#45;&#45;controller</title>
<path fill="none" stroke="black" d="M153.88,-84.77C172.72,-68.6 194.99,-49.48 210.65,-36.04"/>
<text text-anchor="middle" x="203.5" y="-57.4" font-family="Roboto" font-size="12.00"> &#160;&#160;&#160;http</text>
</g>
<!-- incu_server -->
<g id="node8" class="node">
<title>incu_server</title>
<polygon fill="none" stroke="black" points="449,-149 240,-149 240,-85 449,-85 449,-149"/>
<text text-anchor="start" x="254" y="-126.4" font-family="Roboto" font-size="12.00"> &#160;&#160;&#160;&#160;&#160;&#160;&#160;http server (python flask) &#160;&#160;&#160;&#160;&#160;&#160;&#160;</text>
<text text-anchor="start" x="268" y="-102.4" font-family="Roboto" font-size="12.00"> &#160;&#160;&#160;&#160;&#160;&#160;&#160;</text>
<text text-anchor="start" x="293" y="-102.4" font-family="Consolas" font-size="12.00">incubator&#45;server/</text>
<text text-anchor="start" x="408" y="-102.4" font-family="Roboto" font-size="12.00"> &#160;&#160;&#160;</text>
</g>
<!-- incu_java&#45;&#45;incu_server -->
<g id="edge6" class="edge">
<title>incu_java&#45;&#45;incu_server</title>
<path fill="none" stroke="black" d="M344.5,-279.84C344.5,-249.74 344.5,-187.03 344.5,-149.12"/>
<text text-anchor="middle" x="378" y="-226.9" font-family="Roboto" font-size="12.00"> &#160;TCP socket</text>
</g>
<!-- incu_server&#45;&#45;controller -->
<g id="edge7" class="edge">
<title>incu_server&#45;&#45;controller</title>
<path fill="none" stroke="black" d="M307.8,-84.77C288.8,-68.6 266.33,-49.48 250.52,-36.04"/>
<text text-anchor="middle" x="300.5" y="-57.4" font-family="Roboto" font-size="12.00"> &#160;&#160;&#160;http</text>
</g>
</g>
</svg>
