<?xml version="1.0" encoding="UTF-8" standalone="no"?>
<!DOCTYPE svg PUBLIC "-//W3C//DTD SVG 1.1//EN"
 "http://www.w3.org/Graphics/SVG/1.1/DTD/svg11.dtd">
<!-- Generated by graphviz version 2.50.0 (0)
 -->
<!-- Pages: 1 -->
<svg width="462pt" height="542pt"
 viewBox="0.00 0.00 461.50 541.60" xmlns="http://www.w3.org/2000/svg" xmlns:xlink="http://www.w3.org/1999/xlink">
<g id="graph0" class="graph" transform="scale(1 1) rotate(0) translate(4 537.6)">
<polygon fill="white" stroke="transparent" points="-4,4 -4,-537.6 457.5,-537.6 457.5,4 -4,4"/>
<!-- imx -->
<g id="node1" class="node">
<title>imx</title>
<polygon fill="none" stroke="black" points="173,-532.9 37,-532.9 37,-465.9 173,-465.9 173,-532.9"/>
<text text-anchor="start" x="103" y="-509.3" font-family="Roboto" font-size="12.00"> </text>
<text text-anchor="start" x="51" y="-496.3" font-family="Roboto" font-size="12.00"> ImageXpress (IMX) </text>
<text text-anchor="start" x="103" y="-483.3" font-family="Roboto" font-size="12.00"> </text>
</g>
<!-- imx_repl -->
<g id="node3" class="node">
<title>imx_repl</title>
<polygon fill="none" stroke="black" points="167.5,-416.2 42.5,-416.2 42.5,-352.2 167.5,-352.2 167.5,-416.2"/>
<text text-anchor="start" x="56.5" y="-393.6" font-family="Roboto" font-size="12.00"> imx repl (python) </text>
<text text-anchor="start" x="70.5" y="-369.6" font-family="Roboto" font-size="12.00"> </text>
<text text-anchor="start" x="74.5" y="-369.6" font-family="Consolas" font-size="12.00">imx_repl/</text>
<text text-anchor="start" x="135.5" y="-369.6" font-family="Roboto" font-size="12.00"> </text>
</g>
<!-- imx&#45;&#45;imx_repl -->
<g id="edge1" class="edge">
<title>imx&#45;&#45;imx_repl</title>
<path fill="none" stroke="black" d="M105,-465.66C105,-450.12 105,-431.64 105,-416.31"/>
<text text-anchor="middle" x="134" y="-437.6" font-family="Roboto" font-size="12.00"> &#160;COM port</text>
</g>
<!-- pf -->
<g id="node2" class="node">
<title>pf</title>
<polygon fill="none" stroke="black" points="450,-533.8 232,-533.8 232,-465 450,-465 450,-533.8"/>
<text text-anchor="start" x="295" y="-510" font-family="Roboto" font-size="12.00"> PreciseFlex (PF) </text>
<text text-anchor="start" x="246" y="-482.6" font-family="Roboto" font-size="12.00"> 10.10.0.98:{20,21,23,10000,10100} </text>
</g>
<!-- pf_repl -->
<g id="node5" class="node">
<title>pf_repl</title>
<polygon fill="none" stroke="black" points="399,-416.2 283,-416.2 283,-352.2 399,-352.2 399,-416.2"/>
<text text-anchor="start" x="297" y="-393.6" font-family="Roboto" font-size="12.00"> pf repl (python) </text>
<text text-anchor="start" x="309.5" y="-369.6" font-family="Roboto" font-size="12.00"> </text>
<text text-anchor="start" x="313.5" y="-369.6" font-family="Consolas" font-size="12.00">pf_repl/</text>
<text text-anchor="start" x="368.5" y="-369.6" font-family="Roboto" font-size="12.00"> </text>
</g>
<!-- pf&#45;&#45;pf_repl -->
<g id="edge3" class="edge">
<title>pf&#45;&#45;pf_repl</title>
<path fill="none" stroke="black" d="M341,-465.05C341,-449.66 341,-431.49 341,-416.38"/>
<text text-anchor="middle" x="385.5" y="-437.6" font-family="Roboto" font-size="12.00"> &#160;TCP, telnet, FTP</text>
</g>
<!-- imx_server -->
<g id="node4" class="node">
<title>imx_server</title>
<polygon fill="none" stroke="black" points="210,-303.4 0,-303.4 0,-234.6 210,-234.6 210,-303.4"/>
<text text-anchor="start" x="36" y="-279.6" font-family="Roboto" font-size="12.00"> cliwrapper (python flask) </text>
<text text-anchor="start" x="14" y="-252.2" font-family="Roboto" font-size="12.00"> on imx windows 10.10.0.99:5050 </text>
</g>
<!-- imx_repl&#45;&#45;imx_server -->
<g id="edge2" class="edge">
<title>imx_repl&#45;&#45;imx_server</title>
<path fill="none" stroke="black" d="M105,-351.97C105,-336.92 105,-318.85 105,-303.51"/>
<text text-anchor="middle" x="138.5" y="-324.6" font-family="Roboto" font-size="12.00"> &#160;subprocess</text>
</g>
<!-- scheduler -->
<g id="node7" class="node">
<title>scheduler</title>
<polygon fill="none" stroke="black" points="323.5,-186 120.5,-186 120.5,-117.2 323.5,-117.2 323.5,-186"/>
<text text-anchor="start" x="193" y="-162.2" font-family="Roboto" font-size="12.00"> scheduler </text>
<text text-anchor="start" x="134.5" y="-134.8" font-family="Roboto" font-size="12.00"> on robotlab&#45;ubuntu (10.10.0.55) </text>
</g>
<!-- imx_server&#45;&#45;scheduler -->
<g id="edge5" class="edge">
<title>imx_server&#45;&#45;scheduler</title>
<path fill="none" stroke="black" d="M138.84,-234.62C154.36,-219.31 172.72,-201.2 188.23,-185.9"/>
<text text-anchor="middle" x="182" y="-207.2" font-family="Roboto" font-size="12.00"> &#160;http</text>
</g>
<!-- pf_server -->
<g id="node6" class="node">
<title>pf_server</title>
<polygon fill="none" stroke="black" points="453.5,-303.4 228.5,-303.4 228.5,-234.6 453.5,-234.6 453.5,-303.4"/>
<text text-anchor="start" x="272" y="-279.6" font-family="Roboto" font-size="12.00"> cliwrapper (python flask) </text>
<text text-anchor="start" x="242.5" y="-252.2" font-family="Roboto" font-size="12.00"> on robotlab&#45;ubuntu 10.10.0.55:5050 </text>
</g>
<!-- pf_repl&#45;&#45;pf_server -->
<g id="edge4" class="edge">
<title>pf_repl&#45;&#45;pf_server</title>
<path fill="none" stroke="black" d="M341,-351.97C341,-336.92 341,-318.85 341,-303.51"/>
<text text-anchor="middle" x="374.5" y="-324.6" font-family="Roboto" font-size="12.00"> &#160;subprocess</text>
</g>
<!-- pf_server&#45;&#45;scheduler -->
<g id="edge6" class="edge">
<title>pf_server&#45;&#45;scheduler</title>
<path fill="none" stroke="black" d="M306.58,-234.62C290.79,-219.31 272.12,-201.2 256.34,-185.9"/>
<text text-anchor="middle" x="300" y="-207.2" font-family="Roboto" font-size="12.00"> &#160;http</text>
</g>
<!-- scheduler_ui -->
<g id="node8" class="node">
<title>scheduler_ui</title>
<polygon fill="none" stroke="black" points="338.5,-68.6 105.5,-68.6 105.5,0.2 338.5,0.2 338.5,-68.6"/>
<text text-anchor="start" x="155.5" y="-44.8" font-family="Roboto" font-size="12.00"> scheduler user interface </text>
<text text-anchor="start" x="119.5" y="-17.4" font-family="Roboto" font-size="12.00"> on robotlab&#45;ubuntu (10.10.0.55:5080) </text>
</g>
<!-- scheduler&#45;&#45;scheduler_ui -->
<g id="edge7" class="edge">
<title>scheduler&#45;&#45;scheduler_ui</title>
<path fill="none" stroke="black" d="M222,-117.22C222,-101.91 222,-83.8 222,-68.5"/>
<text text-anchor="middle" x="304.5" y="-89.8" font-family="Roboto" font-size="12.00"> &#160;filesystem on robotlab&#45;ubuntu</text>
</g>
</g>
</svg>
