<?xml version="1.0" encoding="UTF-8" standalone="no"?>
<!DOCTYPE svg PUBLIC "-//W3C//DTD SVG 1.1//EN"
 "http://www.w3.org/Graphics/SVG/1.1/DTD/svg11.dtd">
<!-- Generated by graphviz version 5.0.0 (0)
 -->
<!-- Pages: 1 -->
<svg width="724pt" height="566pt"
 viewBox="0.00 0.00 723.50 566.00" xmlns="http://www.w3.org/2000/svg" xmlns:xlink="http://www.w3.org/1999/xlink">
<g id="graph0" class="graph" transform="scale(1 1) rotate(0) translate(4 562)">
<polygon fill="white" stroke="transparent" points="-4,4 -4,-562 719.5,-562 719.5,4 -4,4"/>
<!-- pf -->
<g id="node1" class="node">
<title>pf</title>
<polygon fill="none" stroke="black" points="214,-429 0,-429 0,-349 214,-349 214,-429"/>
<text text-anchor="start" x="14" y="-405.4" font-family="Roboto" font-size="12.00"> &#160;&#160;&#160;&#160;&#160;&#160;&#160;PreciseFlex (PF) robotarm &#160;&#160;&#160;&#160;&#160;&#160;&#160;</text>
<text text-anchor="start" x="30" y="-379.4" font-family="Roboto" font-size="12.00"> 10.10.0.98:{20,21,23} &#160;&#160;&#160;&#160;&#160;&#160;&#160;&#160;&#160;&#160;&#160;&#160;</text>
<text text-anchor="start" x="31" y="-366.4" font-family="Roboto" font-size="12.00"> 10.10.0.98:{10000,10100} &#160;&#160;&#160;</text>
</g>
<!-- scheduler -->
<g id="node6" class="node">
<title>scheduler</title>
<polygon fill="none" stroke="black" points="449.5,-287 246.5,-287 246.5,-220 449.5,-220 449.5,-287"/>
<text text-anchor="start" x="319" y="-263.4" font-family="Roboto" font-size="12.00"> scheduler </text>
<text text-anchor="start" x="260.5" y="-237.4" font-family="Roboto" font-size="12.00"> on robotlab&#45;ubuntu (10.10.0.55) </text>
</g>
<!-- pf&#45;&#45;scheduler -->
<g id="edge4" class="edge">
<title>pf&#45;&#45;scheduler</title>
<path fill="none" stroke="black" d="M177.68,-348.85C213.1,-329.23 255.48,-305.75 289.11,-287.12"/>
<text text-anchor="start" x="257" y="-321.4" font-family="Roboto" font-size="12.00">TCP: socket</text>
<text text-anchor="start" x="260.5" y="-308.4" font-family="Roboto" font-size="12.00">telnet, FTP</text>
</g>
<!-- imx -->
<g id="node2" class="node">
<title>imx</title>
<polygon fill="none" stroke="black" points="477.5,-558 280.5,-558 280.5,-491 477.5,-491 477.5,-558"/>
<text text-anchor="start" x="377" y="-534.4" font-family="Roboto" font-size="12.00"> </text>
<text text-anchor="start" x="294.5" y="-521.4" font-family="Roboto" font-size="12.00"> ImageXpress (IMX) microscope</text>
<text text-anchor="start" x="377" y="-508.4" font-family="Roboto" font-size="12.00"> </text>
</g>
<!-- gbg_server -->
<g id="node4" class="node">
<title>gbg_server</title>
<polygon fill="none" stroke="black" points="715.5,-421 482.5,-421 482.5,-357 715.5,-357 715.5,-421"/>
<text text-anchor="start" x="496.5" y="-398.4" font-family="Roboto" font-size="12.00"> &#160;&#160;&#160;&#160;&#160;&#160;&#160;python flask: </text>
<text text-anchor="start" x="592.5" y="-398.4" font-family="Consolas" font-size="12.00">labrobots&#45;server</text>
<text text-anchor="start" x="511.5" y="-374.4" font-family="Roboto" font-size="12.00"> gbg windows 10.10.0.97:5050 &#160;&#160;&#160;</text>
</g>
<!-- imx&#45;&#45;gbg_server -->
<g id="edge2" class="edge">
<title>imx&#45;&#45;gbg_server</title>
<path fill="none" stroke="black" d="M432.82,-490.84C467.8,-469.61 513.15,-442.1 547.63,-421.17"/>
<text text-anchor="start" x="503" y="-463.4" font-family="Roboto" font-size="12.00">COM port</text>
<text text-anchor="start" x="504.5" y="-450.4" font-family="Roboto" font-size="12.00">(via USB)</text>
</g>
<!-- imx_server -->
<g id="node5" class="node">
<title>imx_server</title>
<polygon fill="none" stroke="black" points="464.5,-421 231.5,-421 231.5,-357 464.5,-357 464.5,-421"/>
<text text-anchor="start" x="245.5" y="-398.4" font-family="Roboto" font-size="12.00"> &#160;&#160;&#160;&#160;&#160;&#160;&#160;python flask: </text>
<text text-anchor="start" x="341.5" y="-398.4" font-family="Consolas" font-size="12.00">labrobots&#45;server</text>
<text text-anchor="start" x="260.5" y="-374.4" font-family="Roboto" font-size="12.00"> imx windows 10.10.0.99:5050 &#160;&#160;&#160;</text>
</g>
<!-- imx&#45;&#45;imx_server -->
<g id="edge1" class="edge">
<title>imx&#45;&#45;imx_server</title>
<path fill="none" stroke="black" d="M371.42,-490.84C366.51,-469.69 360.14,-442.3 355.29,-421.4"/>
<text text-anchor="start" x="368" y="-463.4" font-family="Roboto" font-size="12.00">filesystem for</text>
<text text-anchor="start" x="374" y="-450.4" font-family="Roboto" font-size="12.00">.HTS listing</text>
</g>
<!-- barcode -->
<g id="node3" class="node">
<title>barcode</title>
<polygon fill="none" stroke="black" points="692,-558 506,-558 506,-491 692,-491 692,-558"/>
<text text-anchor="start" x="597" y="-534.4" font-family="Roboto" font-size="12.00"> </text>
<text text-anchor="start" x="520" y="-521.4" font-family="Roboto" font-size="12.00"> Barcode scanner (Honeywell)</text>
<text text-anchor="start" x="597" y="-508.4" font-family="Roboto" font-size="12.00"> </text>
</g>
<!-- barcode&#45;&#45;gbg_server -->
<g id="edge3" class="edge">
<title>barcode&#45;&#45;gbg_server</title>
<path fill="none" stroke="black" d="M599,-490.84C599,-469.69 599,-442.3 599,-421.4"/>
<text text-anchor="start" x="599" y="-463.4" font-family="Roboto" font-size="12.00">COM port</text>
<text text-anchor="start" x="600.5" y="-450.4" font-family="Roboto" font-size="12.00">(via USB)</text>
</g>
<!-- gbg_server&#45;&#45;scheduler -->
<g id="edge5" class="edge">
<title>gbg_server&#45;&#45;scheduler</title>
<path fill="none" stroke="black" d="M540.47,-356.87C501.07,-335.91 449.21,-308.33 409.25,-287.08"/>
<text text-anchor="middle" x="503" y="-314.9" font-family="Roboto" font-size="12.00"> &#160;http</text>
</g>
<!-- imx_server&#45;&#45;scheduler -->
<g id="edge6" class="edge">
<title>imx_server&#45;&#45;scheduler</title>
<path fill="none" stroke="black" d="M348,-356.7C348,-335.89 348,-308.61 348,-287.47"/>
<text text-anchor="middle" x="362" y="-314.9" font-family="Roboto" font-size="12.00"> &#160;http</text>
</g>
<!-- scheduler_ui -->
<g id="node7" class="node">
<title>scheduler_ui</title>
<polygon fill="none" stroke="black" points="464.5,-171 231.5,-171 231.5,-104 464.5,-104 464.5,-171"/>
<text text-anchor="start" x="281.5" y="-147.4" font-family="Roboto" font-size="12.00"> scheduler user interface </text>
<text text-anchor="start" x="245.5" y="-121.4" font-family="Roboto" font-size="12.00"> on robotlab&#45;ubuntu (10.10.0.55:5051) </text>
</g>
<!-- scheduler&#45;&#45;scheduler_ui -->
<g id="edge7" class="edge">
<title>scheduler&#45;&#45;scheduler_ui</title>
<path fill="none" stroke="black" d="M348,-219.83C348,-204.57 348,-186.44 348,-171.17"/>
<text text-anchor="middle" x="430.5" y="-192.4" font-family="Roboto" font-size="12.00"> &#160;filesystem on robotlab&#45;ubuntu</text>
</g>
<!-- operator -->
<g id="node8" class="node">
<title>operator</title>
<polygon fill="none" stroke="black" points="438,-67 258,-67 258,0 438,0 438,-67"/>
<text text-anchor="start" x="322.5" y="-43.4" font-family="Roboto" font-size="12.00"> operator </text>
<text text-anchor="start" x="272" y="-17.4" font-family="Roboto" font-size="12.00"> on robotlab&#45;gbg (imx room) </text>
</g>
<!-- scheduler_ui&#45;&#45;operator -->
<g id="edge8" class="edge">
<title>scheduler_ui&#45;&#45;operator</title>
<path fill="none" stroke="black" d="M348,-103.95C348,-92.17 348,-78.88 348,-67.09"/>
</g>
</g>
</svg>
